<svg xmlns="http://www.w3.org/2000/svg" width="111" height="96"><defs><clipPath id="a"><path fill="#fff" d="M2 56h20.5v-1a5 5 0 015-5h56a5 5 0 015 5v1H109a2 2 0 012 2v29a2 2 0 01-2 2l-9-1.167V91a5 5 0 01-5 5H16a5 5 0 01-5-5v-3.19L2 89a2 2 0 01-2-2V58a2 2 0 012-2z"/></clipPath></defs><path d="M55-.014c24.861 0 45.015 20.153 45.015 45.014 0 24.86-20.154 45.014-45.015 45.014C30.14 90.014 9.986 69.861 9.986 45 9.986 20.14 30.14-.014 55-.014zM18.422 45C18.422 65.202 34.8 81.578 55 81.578c20.202 0 36.58-16.376 36.58-36.578S75.202 8.421 55 8.421c-20.201 0-36.578 16.377-36.578 36.58z"/><path fill="#ef7f1a" d="M55-.014c24.861 0 45.015 20.153 45.015 45.014 0 24.86-20.154 45.014-45.015 45.014C30.14 90.014 9.986 69.861 9.986 45 9.986 20.14 30.14-.014 55-.014zM18.422 45C18.422 65.202 34.8 81.578 55 81.578c20.202 0 36.58-16.376 36.58-36.578S75.202 8.421 55 8.421c-20.201 0-36.578 16.377-36.578 36.58z"/><path fill="#ef7f1a" d="M91 24l-15.003-4.02L86.98 8.997z"/><path fill="#fff" d="M2 56h20.5v-1a5 5 0 015-5h56a5 5 0 015 5v1H109a2 2 0 012 2v29a2 2 0 01-2 2l-9-1.167V91a5 5 0 01-5 5H16a5 5 0 01-5-5v-3.19L2 89a2 2 0 01-2-2V58a2 2 0 012-2z"/><path fill="none" stroke="#ef7f1a" stroke-miterlimit="20" stroke-width="4" d="M2 56h20.5v-1a5 5 0 015-5h56a5 5 0 015 5v1H109a2 2 0 012 2v29a2 2 0 01-2 2l-9-1.167V91a5 5 0 01-5 5H16a5 5 0 01-5-5v-3.19L2 89a2 2 0 01-2-2V58a2 2 0 012-2z" clip-path="url(&quot;#a&quot;)"/><text dominant-baseline="text-before-edge" style="text-transform:uppercase;line-height:14px" font-family="'HelveticaNeueCyr','HelveticaNeueCyr-Bold'" font-size="10" font-style="none" font-weight="700" transform="translate(6 63)"><tspan style="font-kerning:normal" letter-spacing=".1">К</tspan><tspan style="font-kerning:normal" letter-spacing=".1">руглосуточный </tspan><tspan style="font-kerning:normal" letter-spacing=".1">выезд</tspan></text><text dominant-baseline="text-before-edge" style="text-transform:uppercase;line-height:16px" font-family="'HelveticaNeueCyr','HelveticaNeueCyr-Bold'" font-size="21.89" font-style="none" font-weight="700" transform="translate(36 20)"><tspan style="font-kerning:normal" letter-spacing=".55">24</tspan></text></svg>