<svg version="1.0" xmlns="http://www.w3.org/2000/svg" width="114.667" height="101.333" viewBox="0 0 86 76"><path d="M15 2.6c-4.6 2-9.7 6.9-12.3 11.9C.1 19.6 0 29.1 2.5 34.1 4.6 38.3 40.9 75 43 75c2.1 0 38.4-36.7 40.5-40.9 2.5-5 2.4-14.5-.2-19.6-7.5-14.3-24-17.8-37-7.9L43 9.1l-3.3-2.5C32.4 1 22.4-.6 15 2.6zm12.9 6c1.7.4 5.6 2.8 8.6 5.5 3.1 2.7 6 4.9 6.5 4.9s3.4-2.2 6.5-5c7.4-6.4 12.2-7.3 19.2-3.9 2.6 1.3 5.6 3.6 6.6 5.1 2.7 3.7 3.4 11.6 1.3 15.9-.9 1.9-8.8 10.6-17.6 19.4l-16 16-16-16C18.2 41.7 10.3 33 9.4 31.1 7.3 26.8 8 18.9 10.7 15.2c2-2.8 9.6-7.2 12.4-7.2.9 0 3 .3 4.8.6z"/></svg>