<svg xmlns="http://www.w3.org/2000/svg" width="72" height="72" viewBox="0 0 72 72"><g><g><path fill="#fff" d="M36 .991c19.33 0 35 15.667 35 34.993S55.33 70.977 36 70.977 1 55.31 1 35.984 16.67.991 36 .991z"/><path fill="none" stroke="#ef7f1a" stroke-linecap="round" stroke-linejoin="round" stroke-miterlimit="20" stroke-width="2" d="M36 .991c19.33 0 35 15.667 35 34.993S55.33 70.977 36 70.977 1 55.31 1 35.984 16.67.991 36 .991z"/></g><g><path fill="#ef7f1a" d="M36 14.75c6.904 0 12.5 5.596 12.5 12.5 0 2.27-.606 4.4-1.664 6.236h.4L35.988 57.253 24.741 33.486h.423A12.443 12.443 0 0 1 23.5 27.25c0-6.904 5.596-12.5 12.5-12.5zm-10 12.5c0 5.523 4.477 10 10 10s10-4.477 10-10-4.477-10-10-10-10 4.477-10 10zm10.003-5.646a5.625 5.625 0 1 1 0 11.25 5.625 5.625 0 0 1 0-11.25z"/></g></g></svg>